<?xml version="1.0" encoding="UTF-8"?>
<svg width="24px" height="24px" viewBox="0 0 24 24" version="1.1" xmlns="http://www.w3.org/2000/svg" xmlns:xlink="http://www.w3.org/1999/xlink">
         <g id="02首页" stroke="none" stroke-width="1" fill="none" fill-rule="evenodd">
        <g transform="translate(-255.000000, -288.000000)" id="编组-4">
            <g transform="translate(255.000000, 288.000000)" id="play-circle-fill">
                <polygon id="路径" points="0 0 24 0 24 24 0 24"></polygon>
                <path d="M12,22 C6.477,22 2,17.523 2,12 C2,6.477 6.477,2 12,2 C17.523,2 22,6.477 22,12 C22,17.523 17.523,22 12,22 Z M10.622,8.415 C10.4993759,8.3331864 10.341692,8.32544785 10.2116462,8.39486134 C10.0816005,8.46427484 10.0002726,8.59958881 10,8.747 L10,15.253 C10.0002726,15.4004112 10.0816005,15.5357252 10.2116462,15.6051387 C10.341692,15.6745521 10.4993759,15.6668136 10.622,15.585 L15.501,12.333 C15.6124353,12.2588403 15.67939,12.1338562 15.67939,12 C15.67939,11.8661438 15.6124353,11.7411597 15.501,11.667 L10.621,8.415 L10.622,8.415 Z" id="形状" fill="#2F54EB" fill-rule="nonzero"></path>
            </g>
        </g>
    </g>
</svg>
