<?xml version="1.0" encoding="UTF-8"?>
<svg width="24px" height="24px" viewBox="0 0 24 24" version="1.1" xmlns="http://www.w3.org/2000/svg" xmlns:xlink="http://www.w3.org/1999/xlink">
         <g id="02首页" stroke="none" stroke-width="1" fill="none" fill-rule="evenodd">
        <g transform="translate(-253.000000, -548.000000)" id="编组-3">
            <g transform="translate(253.000000, 548.000000)" id="question-fill-(1)">
                <polygon id="路径" points="0 0 24 0 24 24 0 24"></polygon>
                <path d="M12,22 C6.477,22 2,17.523 2,12 C2,6.477 6.477,2 12,2 C17.523,2 22,6.477 22,12 C22,17.523 17.523,22 12,22 Z M11,15 L11,17 L13,17 L13,15 L11,15 Z M13,13.355 C14.6610148,12.8543757 15.705157,11.2131154 15.4547342,9.49646657 C15.2043113,7.77981775 13.7348104,6.50524497 12,6.5 C10.3315752,6.49987284 8.89487097,7.6771082 8.567,9.313 L10.529,9.706 C10.6838697,8.93117447 11.4132539,8.40934647 12.1965836,8.51294995 C12.9799134,8.61655344 13.5485571,9.31005909 13.4966679,10.0985049 C13.4447788,10.8869506 12.7901514,11.4999504 12,11.5 C11.4477153,11.5 11,11.9477153 11,12.5 L11,14 L13,14 L13,13.355 Z" id="形状" fill="#2F54EB" fill-rule="nonzero"></path>
            </g>
        </g>
    </g>
</svg>
