<?xml version="1.0" encoding="utf-8"?>
 <svg version="1.1" id="a_1" xmlns="http://www.w3.org/2000/svg" xmlns:xlink="http://www.w3.org/1999/xlink" x="0px" y="0px"
	 viewBox="0 0 16 16" style="enable-background:new 0 0 16 16;" xml:space="preserve">
<style type="text/css">
	.st0{fill:none;stroke:#FFFFFF;stroke-width:1.375;stroke-linejoin:round;}
	.st1{fill:none;stroke:#FFFFFF;stroke-width:1.375;stroke-linecap:round;stroke-linejoin:round;}
</style>
 <g id="menu_x2F_icon_x2F_04">
	<g id="b_inbox-r" transform="translate(1.000000, 2.000000)">
		<path id="矩形" class="st0" d="M2.1,0h9.9c0.8,0,1.4,0.6,1.4,1.4v9.9c0,0.8-0.6,1.4-1.4,1.4H2.1c-0.8,0-1.4-0.6-1.4-1.4V1.4
			C0.7,0.6,1.3,0,2.1,0z"/>
		<polyline id="c" class="st1" points="0,8.8 3.8,8.8 4.6,10.1 9.4,10.1 10.1,8.8 14,8.8 		"/>
		<line id="c_1_" class="st1" x1="13.3" y1="10.5" x2="13.3" y2="7"/>
		<line id="c_2_" class="st1" x1="0.7" y1="10.5" x2="0.7" y2="7"/>
		<line id="c_3_" class="st1" x1="4.6" y1="3.2" x2="9.4" y2="3.2"/>
		<line id="c_4_" class="st1" x1="4.6" y1="5.9" x2="9.4" y2="5.9"/>
	</g>
</g>
</svg>
