<?xml version="1.0" encoding="utf-8"?>
 <svg version="1.1" id="a_1" xmlns="http://www.w3.org/2000/svg" xmlns:xlink="http://www.w3.org/1999/xlink" x="0px" y="0px"
	 viewBox="0 0 16 16" style="enable-background:new 0 0 16 16;" xml:space="preserve">
<style type="text/css">
	.st0{fill:none;stroke:#FFFFFF;stroke-width:1.375;stroke-linejoin:round;}
</style>
 <g id="menu_x2F_icon_x2F_08">
	<g id="b_setting-two" transform="translate(1.000000, 1.000000)">
		<path id="c" class="st0" d="M5,13.5c-1.2-0.3-2.2-1-3-1.9c0.3-0.4,0.5-0.8,0.5-1.4c0-1.2-0.9-2.1-2.1-2.1c-0.1,0-0.1,0-0.2,0
			C0,7.7,0,7.2,0,6.7C0,6,0.1,5.3,0.3,4.6c0,0,0,0,0,0c1.2,0,2.1-0.9,2.1-2.1c0-0.3-0.1-0.6-0.2-0.9C3,0.9,4,0.3,5.1,0
			C5.5,0.7,6.2,1.1,7,1.1S8.5,0.7,8.9,0C10,0.3,11,0.9,11.8,1.6c-0.1,0.3-0.2,0.6-0.2,0.9c0,1.2,0.9,2.1,2.1,2.1c0,0,0,0,0,0
			C13.9,5.3,14,6,14,6.7c0,0.5,0,1-0.1,1.4c-0.1,0-0.1,0-0.2,0c-1.2,0-2.1,0.9-2.1,2.1c0,0.5,0.2,1,0.5,1.4c-0.8,0.9-1.9,1.5-3,1.9
			C8.7,12.6,7.9,12,7,12S5.3,12.6,5,13.5z"/>
		<path id="c_1_" class="st0" d="M7,9.2c1.4,0,2.4-1.1,2.4-2.5S8.4,4.3,7,4.3S4.6,5.4,4.6,6.7S5.6,9.2,7,9.2z"/>
	</g>
</g>
</svg>
