<?xml version="1.0" encoding="UTF-8"?>
<svg width="17px" height="16px" viewBox="0 0 17 16" version="1.1" xmlns="http://www.w3.org/2000/svg" xmlns:xlink="http://www.w3.org/1999/xlink">
         <g id="04首页模版创建" stroke="none" stroke-width="1" fill="none" fill-rule="evenodd">
        <g transform="translate(-748.000000, -177.000000)" id="编组-6">
            <g id="编组-2" transform="translate(581.000000, 97.000000)">
                <g id="编组-7备份" transform="translate(157.000000, 70.000000)">
                    <g id="git-branch-fill" transform="translate(10.278280, 10.000000)">
                        <polygon id="路径" points="0 0 16 0 16 16 0 16"></polygon>
                        <path d="M4.73666667,10.14 C5.63597261,10.4964897 6.15138764,11.4453666 5.96090277,12.3938136 C5.77041789,13.3422605 4.92860576,14.0185537 3.96139415,14.0001743 C2.99418255,13.981795 2.17867122,13.2740088 2.02435633,12.3190098 C1.87004144,11.3640109 2.42113321,10.4354001 3.33333333,10.1133333 L3.33333333,5.88666667 C2.41458252,5.56196096 1.86340242,4.62255911 2.02812589,3.66214095 C2.19284936,2.70172279 3.02555818,1.99967482 4,1.99967482 C4.97444182,1.99967482 5.80715064,2.70172279 5.97187411,3.66214095 C6.13659758,4.62255911 5.58541748,5.56196096 4.66666667,5.88666667 L4.66666667,8 C5.224,7.58133333 5.916,7.33333333 6.66666667,7.33333333 L9.33333333,7.33333333 C10.2352108,7.33336993 11.0256175,6.72998515 11.2633333,5.86 C10.3593902,5.50204873 9.84363663,4.54605964 10.0408518,3.59403634 C10.2380671,2.64201304 11.0911536,1.96958434 12.0629074,2.00019076 C13.0346612,2.03079718 13.8437411,2.75557757 13.9806549,3.71812462 C14.1175687,4.68067168 13.5426772,5.60230974 12.618,5.90266667 C12.3408125,7.50010001 10.9546372,8.66654668 9.33333333,8.66666667 L6.66666667,8.66666667 C5.7647892,8.66663007 4.97438245,9.27001485 4.73666667,10.14 Z" id="路径" fill="#2F54EB" fill-rule="nonzero"></path>
                    </g>
                </g>
            </g>
        </g>
    </g>
</svg>
