<?xml version="1.0" encoding="UTF-8"?>
<svg width="18px" height="18px" viewBox="0 0 18 18" version="1.1" xmlns="http://www.w3.org/2000/svg" xmlns:xlink="http://www.w3.org/1999/xlink">
         <g id="控件" stroke="none" stroke-width="1" fill="none" fill-rule="evenodd">
        <g id="path/方案列表" transform="translate(-1250.000000, -16.000000)">
            <g id="编组备份-7" transform="translate(1206.000000, 8.000000)">
                <g id="notification-2-line" transform="translate(44.000000, 8.000000)">
                    <polygon id="路径" points="0 0 18 0 18 18 0 18"></polygon>
                    <path d="M16.5,15 L1.5,15 L1.5,13.5 L2.25,13.5 L2.25,8.27325 C2.25,4.53225 5.2725,1.5 9,1.5 C12.7275,1.5 15.75,4.53225 15.75,8.27325 L15.75,13.5 L16.5,13.5 L16.5,15 Z M3.75,13.5 L14.25,13.5 L14.25,8.27325 C14.25,5.361 11.8995,3 9,3 C6.1005,3 3.75,5.361 3.75,8.27325 L3.75,13.5 Z M7.125,15.75 L10.875,15.75 C10.875,16.7855339 10.0355339,17.625 9,17.625 C7.96446609,17.625 7.125,16.7855339 7.125,15.75 L7.125,15.75 Z" id="形状" fill="#A3A4B2" fill-rule="nonzero"></path>
                </g>
            </g>
        </g>
    </g>
</svg>
