<?xml version="1.0" encoding="UTF-8"?>
<svg width="34px" height="37px" viewBox="0 0 34 37" version="1.1" xmlns="http://www.w3.org/2000/svg" xmlns:xlink="http://www.w3.org/1999/xlink">
         <g id="控件" stroke="none" stroke-width="1" fill="none" fill-rule="evenodd">
        <g id="编组">
            <g id="checkbox-multiple-line" transform="translate(8.000000, 10.000000)">
                <polygon id="路径" points="0 0 18 0 18 18 0 18"></polygon>
                <path d="M5.25,5.25 L5.25,2.25 C5.25,1.83578644 5.58578644,1.5 5.99999963,1.5 L15.75,1.5 C16.1642136,1.5 16.4999996,1.83578644 16.4999996,2.25 L16.4999996,12 C16.4999996,12.4142136 16.1642136,12.75 15.75,12.75 L12.75,12.75 L12.75,15.74475 C12.75,16.16175 12.41325,16.5 11.99475,16.5 L2.25525,16.5 C2.05488422,16.5001993 1.86266763,16.4206925 1.72098756,16.2790124 C1.57930749,16.1373324 1.49980073,15.9451158 1.49999963,15.74475 L1.50225,6.00525 C1.50225,5.58825 1.839,5.25 2.2575,5.25 L5.25,5.25 Z M6.75,5.25 L11.99475,5.25 C12.41175,5.25 12.75,5.58675 12.75,6.00525 L12.75,11.25 L15,11.25 L15,3 L6.75,3 L6.75,5.25 Z M11.25,6.75 L3.00225,6.75 L3,15 L11.25,15 L11.25,6.75 Z M6.37725,13.5 L3.72525,10.848 L4.78575,9.7875 L6.37725,11.379 L9.55875,8.19675 L10.61925,9.25725 L6.37725,13.5 Z" id="形状" fill="#A3A4B2" fill-rule="nonzero"></path>
            </g>
            <rect id="矩形备份-3" x="0" y="0" width="34" height="37"></rect>
        </g>
    </g>
</svg>
