<?xml version="1.0" encoding="UTF-8"?>
<svg width="18px" height="18px" viewBox="0 0 18 18" version="1.1" xmlns="http://www.w3.org/2000/svg" xmlns:xlink="http://www.w3.org/1999/xlink">
         <g id="控件" stroke="none" stroke-width="1" fill="none" fill-rule="evenodd">
        <g id="right/00" transform="translate(-8.000000, -48.000000)">
            <g id="book-mark-line" transform="translate(8.000000, 48.000000)">
                <polygon id="路径" points="0 0 18 0 18 18 0 18"></polygon>
                <path d="M2.25,13.875 L2.25,3.75 C2.25,2.50735931 3.25735931,1.5 4.5,1.5 L15,1.5 C15.4142136,1.5 15.75,1.83578644 15.75,2.25 L15.75,15.75 C15.75,16.1642136 15.4142136,16.5 15,16.5 L4.875,16.5 C3.42525253,16.5 2.25,15.3247475 2.25,13.875 Z M14.25,15 L14.25,12.75 L4.875,12.75 C4.25367966,12.75 3.75,13.2536797 3.75,13.875 C3.75,14.4963203 4.25367966,15 4.875,15 L14.25,15 Z M7.5,3 L4.5,3 C4.08578644,3 3.75,3.33578644 3.75,3.75 L3.75,11.50275 C4.10151776,11.3358285 4.48586344,11.2494788 4.875,11.25 L14.25,11.25 L14.25,3 L12.75,3 L12.75,9 L10.125,7.5 L7.5,9 L7.5,3 Z" id="形状" fill="#A3A4B2" fill-rule="nonzero"></path>
            </g>
        </g>
    </g>
</svg>
